<svg width="320" height="240" viewBox="0 0 800 600" xmlns="http://www.w3.org/2000/svg">
  <title>Resume Illustration</title>
  <defs>
    <linearGradient id="grad" x1="50%" y1="0%" x2="50%" y2="100%">
      <stop offset="0%" stop-color="#4F46E5"/>
      <stop offset="100%" stop-color="#7C3AED"/>
    </linearGradient>
  </defs>
  <rect fill="#F9FAFB" width="800" height="600"/>
  <g transform="translate(200,100)">
    <rect fill="#FFFFFF" width="400" height="500" rx="8"/>
    <rect fill="url(#grad)" width="400" height="80" rx="8"/>
    <circle fill="#E0E7FF" cx="60" cy="40" r="30"/>
    <rect fill="#F3F4F6" x="120" y="25" width="200" height="12" rx="2"/>
    <rect fill="#E0E7FF" x="120" y="45" width="150" height="10" rx="2"/>
    <rect fill="#4F46E5" x="40" y="100" width="100" height="10" rx="2"/>
    <rect fill="#E5E7EB" x="40" y="120" width="320" height="8" rx="2"/>
    <rect fill="#E5E7EB" x="40" y="135" width="320" height="8" rx="2"/>
    <rect fill="#E5E7EB" x="40" y="150" width="320" height="8" rx="2"/>
    <rect fill="#4F46E5" x="40" y="180" width="100" height="10" rx="2"/>
    <rect fill="#E5E7EB" x="40" y="200" width="320" height="8" rx="2"/>
    <rect fill="#E5E7EB" x="40" y="215" width="320" height="8" rx="2"/>
    <rect fill="#E5E7EB" x="40" y="230" width="320" height="8" rx="2"/>
    <rect fill="#E5E7EB" x="40" y="245" width="320" height="8" rx="2"/>
    <rect fill="#4F46E5" x="40" y="275" width="100" height="10" rx="2"/>
    <rect fill="#E5E7EB" x="40" y="295" width="320" height="8" rx="2"/>
    <rect fill="#E5E7EB" x="40" y="310" width="320" height="8" rx="2"/>
    <rect fill="#4F46E5" x="40" y="340" width="100" height="10" rx="2"/>
    <rect fill="#E5E7EB" x="40" y="360" width="150" height="8" rx="2"/>
    <rect fill="#E5E7EB" x="200" y="360" width="160" height="8" rx="2"/>
    <rect fill="#F3F4F6" x="40" y="430" width="320" height="50" rx="4"/>
    <rect fill="#D1D5DB" x="60" y="445" width="280" height="6" rx="2"/>
    <rect fill="#D1D5DB" x="60" y="460" width="200" height="6" rx="2"/>
  </g>
</svg>
